<svg xmlns="http://www.w3.org/2000/svg" version="1.1" xmlns:xlink="http://www.w3.org/1999/xlink" xmlns:svgjs="http://svgjs.com/svgjs" width="900" height="600" preserveAspectRatio="none" viewBox="0 0 900 600"><g mask="url(&quot;#SvgjsMask1061&quot;)" fill="none"><rect width="900" height="600" x="0" y="0" fill="url(#SvgjsRadialGradient1062)"></rect><g mask="url(&quot;#SvgjsMask1063&quot;)"><path d="M570 330L450 330L370 250L190 250" stroke-width="3.33" stroke="rgba(220, 20, 60, 1)"></path><path d="M565 330 a5 5 0 1 0 10 0 a5 5 0 1 0 -10 0zM185 250 a5 5 0 1 0 10 0 a5 5 0 1 0 -10 0z" fill="rgba(220, 20, 60, 1)"></path><path d="M630 190L450 10L250 10" stroke-width="3.33" stroke="rgba(220, 20, 60, 1)"></path><path d="M625 190 a5 5 0 1 0 10 0 a5 5 0 1 0 -10 0zM245 10 a5 5 0 1 0 10 0 a5 5 0 1 0 -10 0z" fill="rgba(220, 20, 60, 1)"></path><path d="M890 350L650 590L510 590" stroke-width="3.33" stroke="rgba(220, 20, 60, 1)"></path><path d="M885 350 a5 5 0 1 0 10 0 a5 5 0 1 0 -10 0zM505 590 a5 5 0 1 0 10 0 a5 5 0 1 0 -10 0z" fill="rgba(220, 20, 60, 1)"></path><path d="M130 390L10 390" stroke-width="3.33" stroke="rgba(220, 20, 60, 1)"></path><path d="M125 390 a5 5 0 1 0 10 0 a5 5 0 1 0 -10 0zM5 390 a5 5 0 1 0 10 0 a5 5 0 1 0 -10 0z" fill="rgba(220, 20, 60, 1)"></path><path d="M430 230L510 150L510 90L450 30L270 30" stroke-width="3.33" stroke="rgba(220, 20, 60, 1)"></path><path d="M425 230 a5 5 0 1 0 10 0 a5 5 0 1 0 -10 0zM265 30 a5 5 0 1 0 10 0 a5 5 0 1 0 -10 0z" fill="rgba(220, 20, 60, 1)"></path><path d="M850 490L890 450L890 410L870 390" stroke-width="3.33" stroke="rgba(220, 20, 60, 1)"></path><path d="M845 490 a5 5 0 1 0 10 0 a5 5 0 1 0 -10 0zM865 390 a5 5 0 1 0 10 0 a5 5 0 1 0 -10 0z" fill="rgba(220, 20, 60, 1)"></path><path d="M90 70L210 190L450 190L470 170" stroke-width="3.33" stroke="rgba(220, 20, 60, 1)"></path><path d="M85 70 a5 5 0 1 0 10 0 a5 5 0 1 0 -10 0zM465 170 a5 5 0 1 0 10 0 a5 5 0 1 0 -10 0z" fill="rgba(220, 20, 60, 1)"></path><path d="M550 190L470 270L470 310" stroke-width="3.33" stroke="rgba(220, 20, 60, 1)"></path><path d="M545 190 a5 5 0 1 0 10 0 a5 5 0 1 0 -10 0zM465 310 a5 5 0 1 0 10 0 a5 5 0 1 0 -10 0z" fill="rgba(220, 20, 60, 1)"></path><path d="M490 530L490 590" stroke-width="3.33" stroke="rgba(220, 20, 60, 1)"></path><path d="M485 530 a5 5 0 1 0 10 0 a5 5 0 1 0 -10 0zM485 590 a5 5 0 1 0 10 0 a5 5 0 1 0 -10 0z" fill="rgba(220, 20, 60, 1)"></path><path d="M250 410L90 570L90 590" stroke-width="3.33" stroke="rgba(220, 20, 60, 1)"></path><path d="M245 410 a5 5 0 1 0 10 0 a5 5 0 1 0 -10 0zM85 590 a5 5 0 1 0 10 0 a5 5 0 1 0 -10 0z" fill="rgba(220, 20, 60, 1)"></path><path d="M730 190L710 170L710 10" stroke-width="3.33" stroke="rgba(220, 20, 60, 1)"></path><path d="M725 190 a5 5 0 1 0 10 0 a5 5 0 1 0 -10 0zM705 10 a5 5 0 1 0 10 0 a5 5 0 1 0 -10 0z" fill="rgba(220, 20, 60, 1)"></path><path d="M650 10L690 50L690 250L730 290L730 310L810 390" stroke-width="3.33" stroke="rgba(220, 20, 60, 1)"></path><path d="M645 10 a5 5 0 1 0 10 0 a5 5 0 1 0 -10 0zM805 390 a5 5 0 1 0 10 0 a5 5 0 1 0 -10 0z" fill="rgba(220, 20, 60, 1)"></path><path d="M890 110L890 10" stroke-width="3.33" stroke="rgba(220, 20, 60, 1)"></path><path d="M885 110 a5 5 0 1 0 10 0 a5 5 0 1 0 -10 0zM885 10 a5 5 0 1 0 10 0 a5 5 0 1 0 -10 0z" fill="rgba(220, 20, 60, 1)"></path><path d="M370 390L310 330L110 330L10 230L10 210" stroke-width="3.33" stroke="rgba(220, 20, 60, 1)"></path><path d="M365 390 a5 5 0 1 0 10 0 a5 5 0 1 0 -10 0zM5 210 a5 5 0 1 0 10 0 a5 5 0 1 0 -10 0z" fill="rgba(220, 20, 60, 1)"></path><path d="M390 570L250 430" stroke-width="3.33" stroke="rgba(220, 20, 60, 1)"></path><path d="M385 570 a5 5 0 1 0 10 0 a5 5 0 1 0 -10 0zM245 430 a5 5 0 1 0 10 0 a5 5 0 1 0 -10 0z" fill="rgba(220, 20, 60, 1)"></path><path d="M670 130L670 50L630 10L470 10" stroke-width="3.33" stroke="rgba(220, 20, 60, 1)"></path><path d="M665 130 a5 5 0 1 0 10 0 a5 5 0 1 0 -10 0zM465 10 a5 5 0 1 0 10 0 a5 5 0 1 0 -10 0z" fill="rgba(220, 20, 60, 1)"></path><path d="M30 70L30 30L50 10L230 10L310 90L370 90" stroke-width="3.33" stroke="rgba(220, 20, 60, 1)"></path><path d="M25 70 a5 5 0 1 0 10 0 a5 5 0 1 0 -10 0zM365 90 a5 5 0 1 0 10 0 a5 5 0 1 0 -10 0z" fill="rgba(220, 20, 60, 1)"></path><path d="M830 450L870 450" stroke-width="3.33" stroke="rgba(220, 20, 60, 1)"></path><path d="M825 450 a5 5 0 1 0 10 0 a5 5 0 1 0 -10 0zM865 450 a5 5 0 1 0 10 0 a5 5 0 1 0 -10 0z" fill="rgba(220, 20, 60, 1)"></path><path d="M590 310L650 310L690 270" stroke-width="3.33" stroke="rgba(220, 20, 60, 1)"></path><path d="M585 310 a5 5 0 1 0 10 0 a5 5 0 1 0 -10 0zM685 270 a5 5 0 1 0 10 0 a5 5 0 1 0 -10 0z" fill="rgba(220, 20, 60, 1)"></path><path d="M130 250L150 270L150 310" stroke-width="3.33" stroke="rgba(220, 20, 60, 1)"></path><path d="M125 250 a5 5 0 1 0 10 0 a5 5 0 1 0 -10 0zM145 310 a5 5 0 1 0 10 0 a5 5 0 1 0 -10 0z" fill="rgba(220, 20, 60, 1)"></path><path d="M530 290L610 210L610 190L530 110" stroke-width="3.33" stroke="rgba(220, 20, 60, 1)"></path><path d="M525 290 a5 5 0 1 0 10 0 a5 5 0 1 0 -10 0zM525 110 a5 5 0 1 0 10 0 a5 5 0 1 0 -10 0z" fill="rgba(220, 20, 60, 1)"></path><path d="M750 510L670 590" stroke-width="3.33" stroke="rgba(220, 20, 60, 1)"></path><path d="M745 510 a5 5 0 1 0 10 0 a5 5 0 1 0 -10 0zM665 590 a5 5 0 1 0 10 0 a5 5 0 1 0 -10 0z" fill="rgba(220, 20, 60, 1)"></path><path d="M690 490L730 490L810 410" stroke-width="3.33" stroke="rgba(220, 20, 60, 1)"></path><path d="M685 490 a5 5 0 1 0 10 0 a5 5 0 1 0 -10 0zM805 410 a5 5 0 1 0 10 0 a5 5 0 1 0 -10 0z" fill="rgba(220, 20, 60, 1)"></path><path d="M750 250L750 310L830 390" stroke-width="3.33" stroke="rgba(220, 20, 60, 1)"></path><path d="M745 250 a5 5 0 1 0 10 0 a5 5 0 1 0 -10 0zM825 390 a5 5 0 1 0 10 0 a5 5 0 1 0 -10 0z" fill="rgba(220, 20, 60, 1)"></path><path d="M870 150L810 210L810 350L830 370L850 370L890 330L890 310L830 250L830 230" stroke-width="3.33" stroke="rgba(220, 20, 60, 1)"></path><path d="M865 150 a5 5 0 1 0 10 0 a5 5 0 1 0 -10 0zM825 230 a5 5 0 1 0 10 0 a5 5 0 1 0 -10 0z" fill="rgba(220, 20, 60, 1)"></path><path d="M170 350L190 370L250 370L270 350L290 350L470 530L470 590" stroke-width="3.33" stroke="rgba(220, 20, 60, 1)"></path><path d="M165 350 a5 5 0 1 0 10 0 a5 5 0 1 0 -10 0zM465 590 a5 5 0 1 0 10 0 a5 5 0 1 0 -10 0z" fill="rgba(220, 20, 60, 1)"></path><path d="M290 510L210 590L170 590L150 570L150 530L230 450L250 450L290 490" stroke-width="3.33" stroke="rgba(220, 20, 60, 1)"></path><path d="M285 510 a5 5 0 1 0 10 0 a5 5 0 1 0 -10 0zM285 490 a5 5 0 1 0 10 0 a5 5 0 1 0 -10 0z" fill="rgba(220, 20, 60, 1)"></path><path d="M390 530L410 510L410 490L290 370L270 370L170 470L70 470" stroke-width="3.33" stroke="rgba(220, 20, 60, 1)"></path><path d="M385 530 a5 5 0 1 0 10 0 a5 5 0 1 0 -10 0zM65 470 a5 5 0 1 0 10 0 a5 5 0 1 0 -10 0z" fill="rgba(220, 20, 60, 1)"></path><path d="M810 470L890 550L890 590" stroke-width="3.33" stroke="rgba(220, 20, 60, 1)"></path><path d="M805 470 a5 5 0 1 0 10 0 a5 5 0 1 0 -10 0zM885 590 a5 5 0 1 0 10 0 a5 5 0 1 0 -10 0z" fill="rgba(220, 20, 60, 1)"></path><path d="M110 230L70 230L50 250" stroke-width="3.33" stroke="rgba(220, 20, 60, 1)"></path><path d="M105 230 a5 5 0 1 0 10 0 a5 5 0 1 0 -10 0zM45 250 a5 5 0 1 0 10 0 a5 5 0 1 0 -10 0z" fill="rgba(220, 20, 60, 1)"></path><path d="M510 310L570 310L670 210L670 150L570 50L510 50" stroke-width="3.33" stroke="rgba(220, 20, 60, 1)"></path><path d="M505 310 a5 5 0 1 0 10 0 a5 5 0 1 0 -10 0zM505 50 a5 5 0 1 0 10 0 a5 5 0 1 0 -10 0z" fill="rgba(220, 20, 60, 1)"></path><path d="M450 430L510 370L510 350" stroke-width="3.33" stroke="rgba(220, 20, 60, 1)"></path><path d="M445 430 a5 5 0 1 0 10 0 a5 5 0 1 0 -10 0zM505 350 a5 5 0 1 0 10 0 a5 5 0 1 0 -10 0z" fill="rgba(220, 20, 60, 1)"></path><path d="M770 290L790 270L790 10" stroke-width="3.33" stroke="rgba(220, 20, 60, 1)"></path><path d="M765 290 a5 5 0 1 0 10 0 a5 5 0 1 0 -10 0zM785 10 a5 5 0 1 0 10 0 a5 5 0 1 0 -10 0z" fill="rgba(220, 20, 60, 1)"></path><path d="M10 330L50 290" stroke-width="3.33" stroke="rgba(220, 20, 60, 1)"></path><path d="M5 330 a5 5 0 1 0 10 0 a5 5 0 1 0 -10 0zM45 290 a5 5 0 1 0 10 0 a5 5 0 1 0 -10 0z" fill="rgba(220, 20, 60, 1)"></path><path d="M750 150L770 170L770 270" stroke-width="3.33" stroke="rgba(220, 20, 60, 1)"></path><path d="M745 150 a5 5 0 1 0 10 0 a5 5 0 1 0 -10 0zM765 270 a5 5 0 1 0 10 0 a5 5 0 1 0 -10 0z" fill="rgba(220, 20, 60, 1)"></path><path d="M490 90L450 50L290 50" stroke-width="3.33" stroke="rgba(220, 20, 60, 1)"></path><path d="M485 90 a5 5 0 1 0 10 0 a5 5 0 1 0 -10 0zM285 50 a5 5 0 1 0 10 0 a5 5 0 1 0 -10 0z" fill="rgba(220, 20, 60, 1)"></path><path d="M890 130L810 130" stroke-width="3.33" stroke="rgba(220, 20, 60, 1)"></path><path d="M885 130 a5 5 0 1 0 10 0 a5 5 0 1 0 -10 0zM805 130 a5 5 0 1 0 10 0 a5 5 0 1 0 -10 0z" fill="rgba(220, 20, 60, 1)"></path><path d="M170 570L190 570L230 530L230 470" stroke-width="3.33" stroke="rgba(220, 20, 60, 1)"></path><path d="M165 570 a5 5 0 1 0 10 0 a5 5 0 1 0 -10 0zM225 470 a5 5 0 1 0 10 0 a5 5 0 1 0 -10 0z" fill="rgba(220, 20, 60, 1)"></path><path d="M470 510L690 290L710 290" stroke-width="3.33" stroke="rgba(220, 20, 60, 1)"></path><path d="M465 510 a5 5 0 1 0 10 0 a5 5 0 1 0 -10 0zM705 290 a5 5 0 1 0 10 0 a5 5 0 1 0 -10 0z" fill="rgba(220, 20, 60, 1)"></path><path d="M190 270L170 270L10 110L10 30" stroke-width="3.33" stroke="rgba(220, 20, 60, 1)"></path><path d="M185 270 a5 5 0 1 0 10 0 a5 5 0 1 0 -10 0zM5 30 a5 5 0 1 0 10 0 a5 5 0 1 0 -10 0z" fill="rgba(220, 20, 60, 1)"></path><path d="M430 350L490 350" stroke-width="3.33" stroke="rgba(220, 20, 60, 1)"></path><path d="M425 350 a5 5 0 1 0 10 0 a5 5 0 1 0 -10 0zM485 350 a5 5 0 1 0 10 0 a5 5 0 1 0 -10 0z" fill="rgba(220, 20, 60, 1)"></path><path d="M110 590L110 570L130 550" stroke-width="3.33" stroke="rgba(220, 20, 60, 1)"></path><path d="M105 590 a5 5 0 1 0 10 0 a5 5 0 1 0 -10 0zM125 550 a5 5 0 1 0 10 0 a5 5 0 1 0 -10 0z" fill="rgba(220, 20, 60, 1)"></path><path d="M170 30L170 130L210 170L450 170" stroke-width="3.33" stroke="rgba(220, 20, 60, 1)"></path><path d="M165 30 a5 5 0 1 0 10 0 a5 5 0 1 0 -10 0zM445 170 a5 5 0 1 0 10 0 a5 5 0 1 0 -10 0z" fill="rgba(220, 20, 60, 1)"></path><path d="M350 290L330 270L310 270L270 310L170 310" stroke-width="3.33" stroke="rgba(220, 20, 60, 1)"></path><path d="M345 290 a5 5 0 1 0 10 0 a5 5 0 1 0 -10 0zM165 310 a5 5 0 1 0 10 0 a5 5 0 1 0 -10 0z" fill="rgba(220, 20, 60, 1)"></path><path d="M110 190L130 170L170 170L230 230L410 230L430 210" stroke-width="3.33" stroke="rgba(220, 20, 60, 1)"></path><path d="M105 190 a5 5 0 1 0 10 0 a5 5 0 1 0 -10 0zM425 210 a5 5 0 1 0 10 0 a5 5 0 1 0 -10 0z" fill="rgba(220, 20, 60, 1)"></path><path d="M530 530L510 510L510 490L690 310L710 310L790 390L790 410L750 450" stroke-width="3.33" stroke="rgba(220, 20, 60, 1)"></path><path d="M525 530 a5 5 0 1 0 10 0 a5 5 0 1 0 -10 0zM745 450 a5 5 0 1 0 10 0 a5 5 0 1 0 -10 0z" fill="rgba(220, 20, 60, 1)"></path><path d="M230 90L250 70L270 70L350 150L490 150" stroke-width="3.33" stroke="rgba(220, 20, 60, 1)"></path><path d="M225 90 a5 5 0 1 0 10 0 a5 5 0 1 0 -10 0zM485 150 a5 5 0 1 0 10 0 a5 5 0 1 0 -10 0z" fill="rgba(220, 20, 60, 1)"></path><path d="M550 570L650 570L710 510" stroke-width="3.33" stroke="rgba(220, 20, 60, 1)"></path><path d="M545 570 a5 5 0 1 0 10 0 a5 5 0 1 0 -10 0zM705 510 a5 5 0 1 0 10 0 a5 5 0 1 0 -10 0z" fill="rgba(220, 20, 60, 1)"></path><path d="M770 530L770 490L790 470" stroke-width="3.33" stroke="rgba(220, 20, 60, 1)"></path><path d="M765 530 a5 5 0 1 0 10 0 a5 5 0 1 0 -10 0zM785 470 a5 5 0 1 0 10 0 a5 5 0 1 0 -10 0z" fill="rgba(220, 20, 60, 1)"></path><path d="M10 450L30 430L30 410" stroke-width="3.33" stroke="rgba(220, 20, 60, 1)"></path><path d="M5 450 a5 5 0 1 0 10 0 a5 5 0 1 0 -10 0zM25 410 a5 5 0 1 0 10 0 a5 5 0 1 0 -10 0z" fill="rgba(220, 20, 60, 1)"></path><path d="M750 410L610 550L510 550" stroke-width="3.33" stroke="rgba(220, 20, 60, 1)"></path><path d="M745 410 a5 5 0 1 0 10 0 a5 5 0 1 0 -10 0zM505 550 a5 5 0 1 0 10 0 a5 5 0 1 0 -10 0z" fill="rgba(220, 20, 60, 1)"></path><path d="M190 550L210 530L210 490" stroke-width="3.33" stroke="rgba(220, 20, 60, 1)"></path><path d="M185 550 a5 5 0 1 0 10 0 a5 5 0 1 0 -10 0zM205 490 a5 5 0 1 0 10 0 a5 5 0 1 0 -10 0z" fill="rgba(220, 20, 60, 1)"></path><path d="M690 590L750 590" stroke-width="3.33" stroke="rgba(220, 20, 60, 1)"></path><path d="M685 590 a5 5 0 1 0 10 0 a5 5 0 1 0 -10 0zM745 590 a5 5 0 1 0 10 0 a5 5 0 1 0 -10 0z" fill="rgba(220, 20, 60, 1)"></path><path d="M370 570L250 570L230 590" stroke-width="3.33" stroke="rgba(220, 20, 60, 1)"></path><path d="M365 570 a5 5 0 1 0 10 0 a5 5 0 1 0 -10 0zM225 590 a5 5 0 1 0 10 0 a5 5 0 1 0 -10 0z" fill="rgba(220, 20, 60, 1)"></path><path d="M610 490L610 410L650 370L750 370L770 390L770 410" stroke-width="3.33" stroke="rgba(220, 20, 60, 1)"></path><path d="M605 490 a5 5 0 1 0 10 0 a5 5 0 1 0 -10 0zM765 410 a5 5 0 1 0 10 0 a5 5 0 1 0 -10 0z" fill="rgba(220, 20, 60, 1)"></path><path d="M150 70L150 30" stroke-width="3.33" stroke="rgba(220, 20, 60, 1)"></path><path d="M145 70 a5 5 0 1 0 10 0 a5 5 0 1 0 -10 0zM145 30 a5 5 0 1 0 10 0 a5 5 0 1 0 -10 0z" fill="rgba(220, 20, 60, 1)"></path><path d="M410 450L410 310L370 270L350 270" stroke-width="3.33" stroke="rgba(220, 20, 60, 1)"></path><path d="M405 450 a5 5 0 1 0 10 0 a5 5 0 1 0 -10 0zM345 270 a5 5 0 1 0 10 0 a5 5 0 1 0 -10 0z" fill="rgba(220, 20, 60, 1)"></path><path d="M710 230L750 190L750 170L730 150L730 50L770 10" stroke-width="3.33" stroke="rgba(220, 20, 60, 1)"></path><path d="M705 230 a5 5 0 1 0 10 0 a5 5 0 1 0 -10 0zM765 10 a5 5 0 1 0 10 0 a5 5 0 1 0 -10 0z" fill="rgba(220, 20, 60, 1)"></path><path d="M190 70L270 150L330 150" stroke-width="3.33" stroke="rgba(220, 20, 60, 1)"></path><path d="M185 70 a5 5 0 1 0 10 0 a5 5 0 1 0 -10 0zM325 150 a5 5 0 1 0 10 0 a5 5 0 1 0 -10 0z" fill="rgba(220, 20, 60, 1)"></path><path d="M390 330L330 330L310 310L310 290" stroke-width="3.33" stroke="rgba(220, 20, 60, 1)"></path><path d="M385 330 a5 5 0 1 0 10 0 a5 5 0 1 0 -10 0zM305 290 a5 5 0 1 0 10 0 a5 5 0 1 0 -10 0z" fill="rgba(220, 20, 60, 1)"></path><path d="M170 390L190 410L210 410L230 390" stroke-width="3.33" stroke="rgba(220, 20, 60, 1)"></path><path d="M165 390 a5 5 0 1 0 10 0 a5 5 0 1 0 -10 0zM225 390 a5 5 0 1 0 10 0 a5 5 0 1 0 -10 0z" fill="rgba(220, 20, 60, 1)"></path><path d="M50 590L50 410" stroke-width="3.33" stroke="rgba(220, 20, 60, 1)"></path><path d="M45 590 a5 5 0 1 0 10 0 a5 5 0 1 0 -10 0zM45 410 a5 5 0 1 0 10 0 a5 5 0 1 0 -10 0z" fill="rgba(220, 20, 60, 1)"></path><path d="M350 470L350 450L290 390L270 390" stroke-width="3.33" stroke="rgba(220, 20, 60, 1)"></path><path d="M345 470 a5 5 0 1 0 10 0 a5 5 0 1 0 -10 0zM265 390 a5 5 0 1 0 10 0 a5 5 0 1 0 -10 0z" fill="rgba(220, 20, 60, 1)"></path><path d="M730 570L730 550L750 530" stroke-width="3.33" stroke="rgba(220, 20, 60, 1)"></path><path d="M725 570 a5 5 0 1 0 10 0 a5 5 0 1 0 -10 0zM745 530 a5 5 0 1 0 10 0 a5 5 0 1 0 -10 0z" fill="rgba(220, 20, 60, 1)"></path><path d="M510 430L470 430L430 470" stroke-width="3.33" stroke="rgba(220, 20, 60, 1)"></path><path d="M505 430 a5 5 0 1 0 10 0 a5 5 0 1 0 -10 0zM425 470 a5 5 0 1 0 10 0 a5 5 0 1 0 -10 0z" fill="rgba(220, 20, 60, 1)"></path><path d="M30 290L30 270L10 250" stroke-width="3.33" stroke="rgba(220, 20, 60, 1)"></path><path d="M25 290 a5 5 0 1 0 10 0 a5 5 0 1 0 -10 0zM5 250 a5 5 0 1 0 10 0 a5 5 0 1 0 -10 0z" fill="rgba(220, 20, 60, 1)"></path><path d="M890 210L890 150" stroke-width="3.33" stroke="rgba(220, 20, 60, 1)"></path><path d="M885 210 a5 5 0 1 0 10 0 a5 5 0 1 0 -10 0zM885 150 a5 5 0 1 0 10 0 a5 5 0 1 0 -10 0z" fill="rgba(220, 20, 60, 1)"></path><path d="M150 450L110 410L70 410" stroke-width="3.33" stroke="rgba(220, 20, 60, 1)"></path><path d="M145 450 a5 5 0 1 0 10 0 a5 5 0 1 0 -10 0zM65 410 a5 5 0 1 0 10 0 a5 5 0 1 0 -10 0z" fill="rgba(220, 20, 60, 1)"></path><path d="M630 510L650 490L650 390" stroke-width="3.33" stroke="rgba(220, 20, 60, 1)"></path><path d="M625 510 a5 5 0 1 0 10 0 a5 5 0 1 0 -10 0zM645 390 a5 5 0 1 0 10 0 a5 5 0 1 0 -10 0z" fill="rgba(220, 20, 60, 1)"></path><path d="M590 210L550 250L510 250L490 270L490 290" stroke-width="3.33" stroke="rgba(220, 20, 60, 1)"></path><path d="M585 210 a5 5 0 1 0 10 0 a5 5 0 1 0 -10 0zM485 290 a5 5 0 1 0 10 0 a5 5 0 1 0 -10 0z" fill="rgba(220, 20, 60, 1)"></path><path d="M70 90L50 70L50 30" stroke-width="3.33" stroke="rgba(220, 20, 60, 1)"></path><path d="M65 90 a5 5 0 1 0 10 0 a5 5 0 1 0 -10 0zM45 30 a5 5 0 1 0 10 0 a5 5 0 1 0 -10 0z" fill="rgba(220, 20, 60, 1)"></path><path d="M30 510L10 490L10 470L30 450" stroke-width="3.33" stroke="rgba(220, 20, 60, 1)"></path><path d="M25 510 a5 5 0 1 0 10 0 a5 5 0 1 0 -10 0zM25 450 a5 5 0 1 0 10 0 a5 5 0 1 0 -10 0z" fill="rgba(220, 20, 60, 1)"></path><path d="M330 590L290 590" stroke-width="3.33" stroke="rgba(220, 20, 60, 1)"></path><path d="M325 590 a5 5 0 1 0 10 0 a5 5 0 1 0 -10 0zM285 590 a5 5 0 1 0 10 0 a5 5 0 1 0 -10 0z" fill="rgba(220, 20, 60, 1)"></path><path d="M810 70L810 10" stroke-width="3.33" stroke="rgba(220, 20, 60, 1)"></path><path d="M805 70 a5 5 0 1 0 10 0 a5 5 0 1 0 -10 0zM805 10 a5 5 0 1 0 10 0 a5 5 0 1 0 -10 0z" fill="rgba(220, 20, 60, 1)"></path><path d="M570 30L630 30L650 50L650 110" stroke-width="3.33" stroke="rgba(220, 20, 60, 1)"></path><path d="M565 30 a5 5 0 1 0 10 0 a5 5 0 1 0 -10 0zM645 110 a5 5 0 1 0 10 0 a5 5 0 1 0 -10 0z" fill="rgba(220, 20, 60, 1)"></path><path d="M830 110L830 10" stroke-width="3.33" stroke="rgba(220, 20, 60, 1)"></path><path d="M825 110 a5 5 0 1 0 10 0 a5 5 0 1 0 -10 0zM825 10 a5 5 0 1 0 10 0 a5 5 0 1 0 -10 0z" fill="rgba(220, 20, 60, 1)"></path><path d="M630 130L650 150L650 210L630 230L610 230L550 290" stroke-width="3.33" stroke="rgba(220, 20, 60, 1)"></path><path d="M625 130 a5 5 0 1 0 10 0 a5 5 0 1 0 -10 0zM545 290 a5 5 0 1 0 10 0 a5 5 0 1 0 -10 0z" fill="rgba(220, 20, 60, 1)"></path><path d="M870 110L850 90L850 10" stroke-width="3.33" stroke="rgba(220, 20, 60, 1)"></path><path d="M865 110 a5 5 0 1 0 10 0 a5 5 0 1 0 -10 0zM845 10 a5 5 0 1 0 10 0 a5 5 0 1 0 -10 0z" fill="rgba(220, 20, 60, 1)"></path><path d="M190 130L210 150L250 150" stroke-width="3.33" stroke="rgba(220, 20, 60, 1)"></path><path d="M185 130 a5 5 0 1 0 10 0 a5 5 0 1 0 -10 0zM245 150 a5 5 0 1 0 10 0 a5 5 0 1 0 -10 0z" fill="rgba(220, 20, 60, 1)"></path><path d="M530 430L630 330" stroke-width="3.33" stroke="rgba(220, 20, 60, 1)"></path><path d="M525 430 a5 5 0 1 0 10 0 a5 5 0 1 0 -10 0zM625 330 a5 5 0 1 0 10 0 a5 5 0 1 0 -10 0z" fill="rgba(220, 20, 60, 1)"></path><path d="M850 210L890 250L890 290" stroke-width="3.33" stroke="rgba(220, 20, 60, 1)"></path><path d="M845 210 a5 5 0 1 0 10 0 a5 5 0 1 0 -10 0zM885 290 a5 5 0 1 0 10 0 a5 5 0 1 0 -10 0z" fill="rgba(220, 20, 60, 1)"></path><path d="M430 90L470 130L490 130" stroke-width="3.33" stroke="rgba(220, 20, 60, 1)"></path><path d="M425 90 a5 5 0 1 0 10 0 a5 5 0 1 0 -10 0zM485 130 a5 5 0 1 0 10 0 a5 5 0 1 0 -10 0z" fill="rgba(220, 20, 60, 1)"></path><path d="M810 150L810 190" stroke-width="3.33" stroke="rgba(220, 20, 60, 1)"></path><path d="M805 150 a5 5 0 1 0 10 0 a5 5 0 1 0 -10 0zM805 190 a5 5 0 1 0 10 0 a5 5 0 1 0 -10 0z" fill="rgba(220, 20, 60, 1)"></path><path d="M230 70L230 30" stroke-width="3.33" stroke="rgba(220, 20, 60, 1)"></path><path d="M225 70 a5 5 0 1 0 10 0 a5 5 0 1 0 -10 0zM225 30 a5 5 0 1 0 10 0 a5 5 0 1 0 -10 0z" fill="rgba(220, 20, 60, 1)"></path><path d="M150 430L190 430" stroke-width="3.33" stroke="rgba(220, 20, 60, 1)"></path><path d="M145 430 a5 5 0 1 0 10 0 a5 5 0 1 0 -10 0zM185 430 a5 5 0 1 0 10 0 a5 5 0 1 0 -10 0z" fill="rgba(220, 20, 60, 1)"></path><path d="M790 550L830 590L870 590" stroke-width="3.33" stroke="rgba(220, 20, 60, 1)"></path><path d="M785 550 a5 5 0 1 0 10 0 a5 5 0 1 0 -10 0zM865 590 a5 5 0 1 0 10 0 a5 5 0 1 0 -10 0z" fill="rgba(220, 20, 60, 1)"></path><path d="M50 330L70 330L110 370" stroke-width="3.33" stroke="rgba(220, 20, 60, 1)"></path><path d="M45 330 a5 5 0 1 0 10 0 a5 5 0 1 0 -10 0zM105 370 a5 5 0 1 0 10 0 a5 5 0 1 0 -10 0z" fill="rgba(220, 20, 60, 1)"></path><path d="M390 110L390 90L370 70L310 70" stroke-width="3.33" stroke="rgba(220, 20, 60, 1)"></path><path d="M385 110 a5 5 0 1 0 10 0 a5 5 0 1 0 -10 0zM305 70 a5 5 0 1 0 10 0 a5 5 0 1 0 -10 0z" fill="rgba(220, 20, 60, 1)"></path><path d="M10 310L10 270" stroke-width="3.33" stroke="rgba(220, 20, 60, 1)"></path><path d="M5 310 a5 5 0 1 0 10 0 a5 5 0 1 0 -10 0zM5 270 a5 5 0 1 0 10 0 a5 5 0 1 0 -10 0z" fill="rgba(220, 20, 60, 1)"></path><path d="M690 510L670 510L630 550" stroke-width="3.33" stroke="rgba(220, 20, 60, 1)"></path><path d="M685 510 a5 5 0 1 0 10 0 a5 5 0 1 0 -10 0zM625 550 a5 5 0 1 0 10 0 a5 5 0 1 0 -10 0z" fill="rgba(220, 20, 60, 1)"></path><path d="M750 210L730 230L730 270" stroke-width="3.33" stroke="rgba(220, 20, 60, 1)"></path><path d="M745 210 a5 5 0 1 0 10 0 a5 5 0 1 0 -10 0zM725 270 a5 5 0 1 0 10 0 a5 5 0 1 0 -10 0z" fill="rgba(220, 20, 60, 1)"></path><path d="M130 150L110 170L90 170L30 110L30 90" stroke-width="3.33" stroke="rgba(220, 20, 60, 1)"></path><path d="M125 150 a5 5 0 1 0 10 0 a5 5 0 1 0 -10 0zM25 90 a5 5 0 1 0 10 0 a5 5 0 1 0 -10 0z" fill="rgba(220, 20, 60, 1)"></path><path d="M370 410L390 390L390 370L370 350L350 350" stroke-width="3.33" stroke="rgba(220, 20, 60, 1)"></path><path d="M365 410 a5 5 0 1 0 10 0 a5 5 0 1 0 -10 0zM345 350 a5 5 0 1 0 10 0 a5 5 0 1 0 -10 0z" fill="rgba(220, 20, 60, 1)"></path><path d="M450 410L430 390L430 370" stroke-width="3.33" stroke="rgba(220, 20, 60, 1)"></path><path d="M445 410 a5 5 0 1 0 10 0 a5 5 0 1 0 -10 0zM425 370 a5 5 0 1 0 10 0 a5 5 0 1 0 -10 0z" fill="rgba(220, 20, 60, 1)"></path><path d="M290 110L270 110L250 90" stroke-width="3.33" stroke="rgba(220, 20, 60, 1)"></path><path d="M285 110 a5 5 0 1 0 10 0 a5 5 0 1 0 -10 0zM245 90 a5 5 0 1 0 10 0 a5 5 0 1 0 -10 0z" fill="rgba(220, 20, 60, 1)"></path><path d="M470 110L430 70L390 70" stroke-width="3.33" stroke="rgba(220, 20, 60, 1)"></path><path d="M465 110 a5 5 0 1 0 10 0 a5 5 0 1 0 -10 0zM385 70 a5 5 0 1 0 10 0 a5 5 0 1 0 -10 0z" fill="rgba(220, 20, 60, 1)"></path><path d="M30 550L10 530L10 510" stroke-width="3.33" stroke="rgba(220, 20, 60, 1)"></path><path d="M25 550 a5 5 0 1 0 10 0 a5 5 0 1 0 -10 0zM5 510 a5 5 0 1 0 10 0 a5 5 0 1 0 -10 0z" fill="rgba(220, 20, 60, 1)"></path><path d="M110 490L70 490" stroke-width="3.33" stroke="rgba(220, 20, 60, 1)"></path><path d="M105 490 a5 5 0 1 0 10 0 a5 5 0 1 0 -10 0zM65 490 a5 5 0 1 0 10 0 a5 5 0 1 0 -10 0z" fill="rgba(220, 20, 60, 1)"></path><path d="M390 210L310 210" stroke-width="3.33" stroke="rgba(220, 20, 60, 1)"></path><path d="M385 210 a5 5 0 1 0 10 0 a5 5 0 1 0 -10 0zM305 210 a5 5 0 1 0 10 0 a5 5 0 1 0 -10 0z" fill="rgba(220, 20, 60, 1)"></path><path d="M390 130L350 130L330 110" stroke-width="3.33" stroke="rgba(220, 20, 60, 1)"></path><path d="M385 130 a5 5 0 1 0 10 0 a5 5 0 1 0 -10 0zM325 110 a5 5 0 1 0 10 0 a5 5 0 1 0 -10 0z" fill="rgba(220, 20, 60, 1)"></path><path d="M330 490L330 450L290 410L270 410" stroke-width="3.33" stroke="rgba(220, 20, 60, 1)"></path><path d="M325 490 a5 5 0 1 0 10 0 a5 5 0 1 0 -10 0zM265 410 a5 5 0 1 0 10 0 a5 5 0 1 0 -10 0z" fill="rgba(220, 20, 60, 1)"></path><path d="M70 530L110 530L150 490" stroke-width="3.33" stroke="rgba(220, 20, 60, 1)"></path><path d="M65 530 a5 5 0 1 0 10 0 a5 5 0 1 0 -10 0zM145 490 a5 5 0 1 0 10 0 a5 5 0 1 0 -10 0z" fill="rgba(220, 20, 60, 1)"></path><path d="M850 230L870 250L870 270" stroke-width="3.33" stroke="rgba(220, 20, 60, 1)"></path><path d="M845 230 a5 5 0 1 0 10 0 a5 5 0 1 0 -10 0zM865 270 a5 5 0 1 0 10 0 a5 5 0 1 0 -10 0z" fill="rgba(220, 20, 60, 1)"></path><path d="M670 250L670 270L650 290L610 290" stroke-width="3.33" stroke="rgba(220, 20, 60, 1)"></path><path d="M665 250 a5 5 0 1 0 10 0 a5 5 0 1 0 -10 0zM605 290 a5 5 0 1 0 10 0 a5 5 0 1 0 -10 0z" fill="rgba(220, 20, 60, 1)"></path><path d="M890 530L870 510L870 490L890 470" stroke-width="3.33" stroke="rgba(220, 20, 60, 1)"></path><path d="M885 530 a5 5 0 1 0 10 0 a5 5 0 1 0 -10 0zM885 470 a5 5 0 1 0 10 0 a5 5 0 1 0 -10 0z" fill="rgba(220, 20, 60, 1)"></path><path d="M610 510L570 470L550 470" stroke-width="3.33" stroke="rgba(220, 20, 60, 1)"></path><path d="M605 510 a5 5 0 1 0 10 0 a5 5 0 1 0 -10 0zM545 470 a5 5 0 1 0 10 0 a5 5 0 1 0 -10 0z" fill="rgba(220, 20, 60, 1)"></path><path d="M30 590L30 570L10 550" stroke-width="3.33" stroke="rgba(220, 20, 60, 1)"></path><path d="M25 590 a5 5 0 1 0 10 0 a5 5 0 1 0 -10 0zM5 550 a5 5 0 1 0 10 0 a5 5 0 1 0 -10 0z" fill="rgba(220, 20, 60, 1)"></path><path d="M570 70L590 90L590 110" stroke-width="3.33" stroke="rgba(220, 20, 60, 1)"></path><path d="M565 70 a5 5 0 1 0 10 0 a5 5 0 1 0 -10 0zM585 110 a5 5 0 1 0 10 0 a5 5 0 1 0 -10 0z" fill="rgba(220, 20, 60, 1)"></path><path d="M310 450L290 430L270 430" stroke-width="3.33" stroke="rgba(220, 20, 60, 1)"></path><path d="M305 450 a5 5 0 1 0 10 0 a5 5 0 1 0 -10 0zM265 430 a5 5 0 1 0 10 0 a5 5 0 1 0 -10 0z" fill="rgba(220, 20, 60, 1)"></path><path d="M50 230L10 190" stroke-width="3.33" stroke="rgba(220, 20, 60, 1)"></path><path d="M45 230 a5 5 0 1 0 10 0 a5 5 0 1 0 -10 0zM5 190 a5 5 0 1 0 10 0 a5 5 0 1 0 -10 0z" fill="rgba(220, 20, 60, 1)"></path><path d="M230 130L190 90" stroke-width="3.33" stroke="rgba(220, 20, 60, 1)"></path><path d="M225 130 a5 5 0 1 0 10 0 a5 5 0 1 0 -10 0zM185 90 a5 5 0 1 0 10 0 a5 5 0 1 0 -10 0z" fill="rgba(220, 20, 60, 1)"></path><path d="M750 50L750 130L770 150" stroke-width="3.33" stroke="rgba(220, 20, 60, 1)"></path><path d="M745 50 a5 5 0 1 0 10 0 a5 5 0 1 0 -10 0zM765 150 a5 5 0 1 0 10 0 a5 5 0 1 0 -10 0z" fill="rgba(220, 20, 60, 1)"></path><path d="M10 370L30 350L50 350" stroke-width="3.33" stroke="rgba(220, 20, 60, 1)"></path><path d="M5 370 a5 5 0 1 0 10 0 a5 5 0 1 0 -10 0zM45 350 a5 5 0 1 0 10 0 a5 5 0 1 0 -10 0z" fill="rgba(220, 20, 60, 1)"></path><path d="M50 210L50 170" stroke-width="3.33" stroke="rgba(220, 20, 60, 1)"></path><path d="M45 210 a5 5 0 1 0 10 0 a5 5 0 1 0 -10 0zM45 170 a5 5 0 1 0 10 0 a5 5 0 1 0 -10 0z" fill="rgba(220, 20, 60, 1)"></path><path d="M270 130L310 130" stroke-width="3.33" stroke="rgba(220, 20, 60, 1)"></path><path d="M265 130 a5 5 0 1 0 10 0 a5 5 0 1 0 -10 0zM305 130 a5 5 0 1 0 10 0 a5 5 0 1 0 -10 0z" fill="rgba(220, 20, 60, 1)"></path><path d="M530 390L510 390L490 410" stroke-width="3.33" stroke="rgba(220, 20, 60, 1)"></path><path d="M525 390 a5 5 0 1 0 10 0 a5 5 0 1 0 -10 0zM485 410 a5 5 0 1 0 10 0 a5 5 0 1 0 -10 0z" fill="rgba(220, 20, 60, 1)"></path><path d="M430 250L450 270L450 310" stroke-width="3.33" stroke="rgba(220, 20, 60, 1)"></path><path d="M425 250 a5 5 0 1 0 10 0 a5 5 0 1 0 -10 0zM445 310 a5 5 0 1 0 10 0 a5 5 0 1 0 -10 0z" fill="rgba(220, 20, 60, 1)"></path><path d="M670 470L690 450L690 430L730 390L750 390" stroke-width="3.33" stroke="rgba(220, 20, 60, 1)"></path><path d="M665 470 a5 5 0 1 0 10 0 a5 5 0 1 0 -10 0zM745 390 a5 5 0 1 0 10 0 a5 5 0 1 0 -10 0z" fill="rgba(220, 20, 60, 1)"></path><path d="M330 550L310 530L310 510" stroke-width="3.33" stroke="rgba(220, 20, 60, 1)"></path><path d="M325 550 a5 5 0 1 0 10 0 a5 5 0 1 0 -10 0zM305 510 a5 5 0 1 0 10 0 a5 5 0 1 0 -10 0z" fill="rgba(220, 20, 60, 1)"></path><path d="M90 110L50 110" stroke-width="3.33" stroke="rgba(220, 20, 60, 1)"></path><path d="M85 110 a5 5 0 1 0 10 0 a5 5 0 1 0 -10 0zM45 110 a5 5 0 1 0 10 0 a5 5 0 1 0 -10 0z" fill="rgba(220, 20, 60, 1)"></path><path d="M430 410L430 450" stroke-width="3.33" stroke="rgba(220, 20, 60, 1)"></path><path d="M425 410 a5 5 0 1 0 10 0 a5 5 0 1 0 -10 0zM425 450 a5 5 0 1 0 10 0 a5 5 0 1 0 -10 0z" fill="rgba(220, 20, 60, 1)"></path><path d="M130 210L190 210" stroke-width="3.33" stroke="rgba(220, 20, 60, 1)"></path><path d="M125 210 a5 5 0 1 0 10 0 a5 5 0 1 0 -10 0zM185 210 a5 5 0 1 0 10 0 a5 5 0 1 0 -10 0z" fill="rgba(220, 20, 60, 1)"></path><path d="M550 350L590 350L610 330" stroke-width="3.33" stroke="rgba(220, 20, 60, 1)"></path><path d="M545 350 a5 5 0 1 0 10 0 a5 5 0 1 0 -10 0zM605 330 a5 5 0 1 0 10 0 a5 5 0 1 0 -10 0z" fill="rgba(220, 20, 60, 1)"></path><path d="M870 550L850 570L830 570L810 550" stroke-width="3.33" stroke="rgba(220, 20, 60, 1)"></path><path d="M865 550 a5 5 0 1 0 10 0 a5 5 0 1 0 -10 0zM805 550 a5 5 0 1 0 10 0 a5 5 0 1 0 -10 0z" fill="rgba(220, 20, 60, 1)"></path><path d="M430 550L450 570L450 590" stroke-width="3.33" stroke="rgba(220, 20, 60, 1)"></path><path d="M425 550 a5 5 0 1 0 10 0 a5 5 0 1 0 -10 0zM445 590 a5 5 0 1 0 10 0 a5 5 0 1 0 -10 0z" fill="rgba(220, 20, 60, 1)"></path><path d="M870 30L870 90" stroke-width="3.33" stroke="rgba(220, 20, 60, 1)"></path><path d="M865 30 a5 5 0 1 0 10 0 a5 5 0 1 0 -10 0zM865 90 a5 5 0 1 0 10 0 a5 5 0 1 0 -10 0z" fill="rgba(220, 20, 60, 1)"></path><path d="M90 290L70 270L70 250" stroke-width="3.33" stroke="rgba(220, 20, 60, 1)"></path><path d="M85 290 a5 5 0 1 0 10 0 a5 5 0 1 0 -10 0zM65 250 a5 5 0 1 0 10 0 a5 5 0 1 0 -10 0z" fill="rgba(220, 20, 60, 1)"></path><path d="M570 190L530 150L530 130" stroke-width="3.33" stroke="rgba(220, 20, 60, 1)"></path><path d="M565 190 a5 5 0 1 0 10 0 a5 5 0 1 0 -10 0zM525 130 a5 5 0 1 0 10 0 a5 5 0 1 0 -10 0z" fill="rgba(220, 20, 60, 1)"></path><path d="M830 330L830 270" stroke-width="3.33" stroke="rgba(220, 20, 60, 1)"></path><path d="M825 330 a5 5 0 1 0 10 0 a5 5 0 1 0 -10 0zM825 270 a5 5 0 1 0 10 0 a5 5 0 1 0 -10 0z" fill="rgba(220, 20, 60, 1)"></path><path d="M350 310L390 310" stroke-width="3.33" stroke="rgba(220, 20, 60, 1)"></path><path d="M345 310 a5 5 0 1 0 10 0 a5 5 0 1 0 -10 0zM385 310 a5 5 0 1 0 10 0 a5 5 0 1 0 -10 0z" fill="rgba(220, 20, 60, 1)"></path><path d="M90 150L90 130L110 110" stroke-width="3.33" stroke="rgba(220, 20, 60, 1)"></path><path d="M85 150 a5 5 0 1 0 10 0 a5 5 0 1 0 -10 0zM105 110 a5 5 0 1 0 10 0 a5 5 0 1 0 -10 0z" fill="rgba(220, 20, 60, 1)"></path></g></g><defs><mask id="SvgjsMask1061"><rect width="900" height="600" fill="#ffffff"></rect></mask><radialGradient cx="50%" cy="50%" r="540.83" gradientUnits="userSpaceOnUse" id="SvgjsRadialGradient1062"><stop stop-color="rgba(71, 14, 14, 1)" offset="0"></stop><stop stop-color="rgba(158, 0, 0, 1)" offset="1"></stop></radialGradient><mask id="SvgjsMask1063"><rect width="900" height="600" fill="white"></rect><path d="M567.5 330 a2.5 2.5 0 1 0 5 0 a2.5 2.5 0 1 0 -5 0zM187.5 250 a2.5 2.5 0 1 0 5 0 a2.5 2.5 0 1 0 -5 0z" fill="black"></path><path d="M627.5 190 a2.5 2.5 0 1 0 5 0 a2.5 2.5 0 1 0 -5 0zM247.5 10 a2.5 2.5 0 1 0 5 0 a2.5 2.5 0 1 0 -5 0z" fill="black"></path><path d="M887.5 350 a2.5 2.5 0 1 0 5 0 a2.5 2.5 0 1 0 -5 0zM507.5 590 a2.5 2.5 0 1 0 5 0 a2.5 2.5 0 1 0 -5 0z" fill="black"></path><path d="M127.5 390 a2.5 2.5 0 1 0 5 0 a2.5 2.5 0 1 0 -5 0zM7.5 390 a2.5 2.5 0 1 0 5 0 a2.5 2.5 0 1 0 -5 0z" fill="black"></path><path d="M427.5 230 a2.5 2.5 0 1 0 5 0 a2.5 2.5 0 1 0 -5 0zM267.5 30 a2.5 2.5 0 1 0 5 0 a2.5 2.5 0 1 0 -5 0z" fill="black"></path><path d="M847.5 490 a2.5 2.5 0 1 0 5 0 a2.5 2.5 0 1 0 -5 0zM867.5 390 a2.5 2.5 0 1 0 5 0 a2.5 2.5 0 1 0 -5 0z" fill="black"></path><path d="M87.5 70 a2.5 2.5 0 1 0 5 0 a2.5 2.5 0 1 0 -5 0zM467.5 170 a2.5 2.5 0 1 0 5 0 a2.5 2.5 0 1 0 -5 0z" fill="black"></path><path d="M547.5 190 a2.5 2.5 0 1 0 5 0 a2.5 2.5 0 1 0 -5 0zM467.5 310 a2.5 2.5 0 1 0 5 0 a2.5 2.5 0 1 0 -5 0z" fill="black"></path><path d="M487.5 530 a2.5 2.5 0 1 0 5 0 a2.5 2.5 0 1 0 -5 0zM487.5 590 a2.5 2.5 0 1 0 5 0 a2.5 2.5 0 1 0 -5 0z" fill="black"></path><path d="M247.5 410 a2.5 2.5 0 1 0 5 0 a2.5 2.5 0 1 0 -5 0zM87.5 590 a2.5 2.5 0 1 0 5 0 a2.5 2.5 0 1 0 -5 0z" fill="black"></path><path d="M727.5 190 a2.5 2.5 0 1 0 5 0 a2.5 2.5 0 1 0 -5 0zM707.5 10 a2.5 2.5 0 1 0 5 0 a2.5 2.5 0 1 0 -5 0z" fill="black"></path><path d="M647.5 10 a2.5 2.5 0 1 0 5 0 a2.5 2.5 0 1 0 -5 0zM807.5 390 a2.5 2.5 0 1 0 5 0 a2.5 2.5 0 1 0 -5 0z" fill="black"></path><path d="M887.5 110 a2.5 2.5 0 1 0 5 0 a2.5 2.5 0 1 0 -5 0zM887.5 10 a2.5 2.5 0 1 0 5 0 a2.5 2.5 0 1 0 -5 0z" fill="black"></path><path d="M367.5 390 a2.5 2.5 0 1 0 5 0 a2.5 2.5 0 1 0 -5 0zM7.5 210 a2.5 2.5 0 1 0 5 0 a2.5 2.5 0 1 0 -5 0z" fill="black"></path><path d="M387.5 570 a2.5 2.5 0 1 0 5 0 a2.5 2.5 0 1 0 -5 0zM247.5 430 a2.5 2.5 0 1 0 5 0 a2.5 2.5 0 1 0 -5 0z" fill="black"></path><path d="M667.5 130 a2.5 2.5 0 1 0 5 0 a2.5 2.5 0 1 0 -5 0zM467.5 10 a2.5 2.5 0 1 0 5 0 a2.5 2.5 0 1 0 -5 0z" fill="black"></path><path d="M27.5 70 a2.5 2.5 0 1 0 5 0 a2.5 2.5 0 1 0 -5 0zM367.5 90 a2.5 2.5 0 1 0 5 0 a2.5 2.5 0 1 0 -5 0z" fill="black"></path><path d="M827.5 450 a2.5 2.5 0 1 0 5 0 a2.5 2.5 0 1 0 -5 0zM867.5 450 a2.5 2.5 0 1 0 5 0 a2.5 2.5 0 1 0 -5 0z" fill="black"></path><path d="M587.5 310 a2.5 2.5 0 1 0 5 0 a2.5 2.5 0 1 0 -5 0zM687.5 270 a2.5 2.5 0 1 0 5 0 a2.5 2.5 0 1 0 -5 0z" fill="black"></path><path d="M127.5 250 a2.5 2.5 0 1 0 5 0 a2.5 2.5 0 1 0 -5 0zM147.5 310 a2.5 2.5 0 1 0 5 0 a2.5 2.5 0 1 0 -5 0z" fill="black"></path><path d="M527.5 290 a2.5 2.5 0 1 0 5 0 a2.5 2.5 0 1 0 -5 0zM527.5 110 a2.5 2.5 0 1 0 5 0 a2.5 2.5 0 1 0 -5 0z" fill="black"></path><path d="M747.5 510 a2.5 2.5 0 1 0 5 0 a2.5 2.5 0 1 0 -5 0zM667.5 590 a2.5 2.5 0 1 0 5 0 a2.5 2.5 0 1 0 -5 0z" fill="black"></path><path d="M687.5 490 a2.5 2.5 0 1 0 5 0 a2.5 2.5 0 1 0 -5 0zM807.5 410 a2.5 2.5 0 1 0 5 0 a2.5 2.5 0 1 0 -5 0z" fill="black"></path><path d="M747.5 250 a2.5 2.5 0 1 0 5 0 a2.5 2.5 0 1 0 -5 0zM827.5 390 a2.5 2.5 0 1 0 5 0 a2.5 2.5 0 1 0 -5 0z" fill="black"></path><path d="M867.5 150 a2.5 2.5 0 1 0 5 0 a2.5 2.5 0 1 0 -5 0zM827.5 230 a2.5 2.5 0 1 0 5 0 a2.5 2.5 0 1 0 -5 0z" fill="black"></path><path d="M167.5 350 a2.5 2.5 0 1 0 5 0 a2.5 2.5 0 1 0 -5 0zM467.5 590 a2.5 2.5 0 1 0 5 0 a2.5 2.5 0 1 0 -5 0z" fill="black"></path><path d="M287.5 510 a2.5 2.5 0 1 0 5 0 a2.5 2.5 0 1 0 -5 0zM287.5 490 a2.5 2.5 0 1 0 5 0 a2.5 2.5 0 1 0 -5 0z" fill="black"></path><path d="M387.5 530 a2.5 2.5 0 1 0 5 0 a2.5 2.5 0 1 0 -5 0zM67.5 470 a2.5 2.5 0 1 0 5 0 a2.5 2.5 0 1 0 -5 0z" fill="black"></path><path d="M807.5 470 a2.5 2.5 0 1 0 5 0 a2.5 2.5 0 1 0 -5 0zM887.5 590 a2.5 2.5 0 1 0 5 0 a2.5 2.5 0 1 0 -5 0z" fill="black"></path><path d="M107.5 230 a2.5 2.5 0 1 0 5 0 a2.5 2.5 0 1 0 -5 0zM47.5 250 a2.5 2.5 0 1 0 5 0 a2.5 2.5 0 1 0 -5 0z" fill="black"></path><path d="M507.5 310 a2.5 2.5 0 1 0 5 0 a2.5 2.5 0 1 0 -5 0zM507.5 50 a2.5 2.5 0 1 0 5 0 a2.5 2.5 0 1 0 -5 0z" fill="black"></path><path d="M447.5 430 a2.5 2.5 0 1 0 5 0 a2.5 2.5 0 1 0 -5 0zM507.5 350 a2.5 2.5 0 1 0 5 0 a2.5 2.5 0 1 0 -5 0z" fill="black"></path><path d="M767.5 290 a2.5 2.5 0 1 0 5 0 a2.5 2.5 0 1 0 -5 0zM787.5 10 a2.5 2.5 0 1 0 5 0 a2.5 2.5 0 1 0 -5 0z" fill="black"></path><path d="M7.5 330 a2.5 2.5 0 1 0 5 0 a2.5 2.5 0 1 0 -5 0zM47.5 290 a2.5 2.5 0 1 0 5 0 a2.5 2.5 0 1 0 -5 0z" fill="black"></path><path d="M747.5 150 a2.5 2.5 0 1 0 5 0 a2.5 2.5 0 1 0 -5 0zM767.5 270 a2.5 2.5 0 1 0 5 0 a2.5 2.5 0 1 0 -5 0z" fill="black"></path><path d="M487.5 90 a2.5 2.5 0 1 0 5 0 a2.5 2.5 0 1 0 -5 0zM287.5 50 a2.5 2.5 0 1 0 5 0 a2.5 2.5 0 1 0 -5 0z" fill="black"></path><path d="M887.5 130 a2.5 2.5 0 1 0 5 0 a2.5 2.5 0 1 0 -5 0zM807.5 130 a2.5 2.5 0 1 0 5 0 a2.5 2.5 0 1 0 -5 0z" fill="black"></path><path d="M167.5 570 a2.5 2.5 0 1 0 5 0 a2.5 2.5 0 1 0 -5 0zM227.5 470 a2.5 2.5 0 1 0 5 0 a2.5 2.5 0 1 0 -5 0z" fill="black"></path><path d="M467.5 510 a2.5 2.5 0 1 0 5 0 a2.5 2.5 0 1 0 -5 0zM707.5 290 a2.5 2.5 0 1 0 5 0 a2.5 2.5 0 1 0 -5 0z" fill="black"></path><path d="M187.5 270 a2.5 2.5 0 1 0 5 0 a2.5 2.5 0 1 0 -5 0zM7.5 30 a2.5 2.5 0 1 0 5 0 a2.5 2.5 0 1 0 -5 0z" fill="black"></path><path d="M427.5 350 a2.5 2.5 0 1 0 5 0 a2.5 2.5 0 1 0 -5 0zM487.5 350 a2.5 2.5 0 1 0 5 0 a2.5 2.5 0 1 0 -5 0z" fill="black"></path><path d="M107.5 590 a2.5 2.5 0 1 0 5 0 a2.5 2.5 0 1 0 -5 0zM127.5 550 a2.5 2.5 0 1 0 5 0 a2.5 2.5 0 1 0 -5 0z" fill="black"></path><path d="M167.5 30 a2.5 2.5 0 1 0 5 0 a2.5 2.5 0 1 0 -5 0zM447.5 170 a2.5 2.5 0 1 0 5 0 a2.5 2.5 0 1 0 -5 0z" fill="black"></path><path d="M347.5 290 a2.5 2.5 0 1 0 5 0 a2.5 2.5 0 1 0 -5 0zM167.5 310 a2.5 2.5 0 1 0 5 0 a2.5 2.5 0 1 0 -5 0z" fill="black"></path><path d="M107.5 190 a2.5 2.5 0 1 0 5 0 a2.5 2.5 0 1 0 -5 0zM427.5 210 a2.5 2.5 0 1 0 5 0 a2.5 2.5 0 1 0 -5 0z" fill="black"></path><path d="M527.5 530 a2.5 2.5 0 1 0 5 0 a2.5 2.5 0 1 0 -5 0zM747.5 450 a2.5 2.5 0 1 0 5 0 a2.5 2.5 0 1 0 -5 0z" fill="black"></path><path d="M227.5 90 a2.5 2.5 0 1 0 5 0 a2.5 2.5 0 1 0 -5 0zM487.5 150 a2.5 2.5 0 1 0 5 0 a2.5 2.5 0 1 0 -5 0z" fill="black"></path><path d="M547.5 570 a2.5 2.5 0 1 0 5 0 a2.5 2.5 0 1 0 -5 0zM707.5 510 a2.5 2.5 0 1 0 5 0 a2.5 2.5 0 1 0 -5 0z" fill="black"></path><path d="M767.5 530 a2.5 2.5 0 1 0 5 0 a2.5 2.5 0 1 0 -5 0zM787.5 470 a2.5 2.5 0 1 0 5 0 a2.5 2.5 0 1 0 -5 0z" fill="black"></path><path d="M7.5 450 a2.5 2.5 0 1 0 5 0 a2.5 2.5 0 1 0 -5 0zM27.5 410 a2.5 2.5 0 1 0 5 0 a2.5 2.5 0 1 0 -5 0z" fill="black"></path><path d="M747.5 410 a2.5 2.5 0 1 0 5 0 a2.5 2.5 0 1 0 -5 0zM507.5 550 a2.5 2.5 0 1 0 5 0 a2.5 2.5 0 1 0 -5 0z" fill="black"></path><path d="M187.5 550 a2.5 2.5 0 1 0 5 0 a2.5 2.5 0 1 0 -5 0zM207.5 490 a2.5 2.5 0 1 0 5 0 a2.5 2.5 0 1 0 -5 0z" fill="black"></path><path d="M687.5 590 a2.5 2.5 0 1 0 5 0 a2.5 2.5 0 1 0 -5 0zM747.5 590 a2.5 2.5 0 1 0 5 0 a2.5 2.5 0 1 0 -5 0z" fill="black"></path><path d="M367.5 570 a2.5 2.5 0 1 0 5 0 a2.5 2.5 0 1 0 -5 0zM227.5 590 a2.5 2.5 0 1 0 5 0 a2.5 2.5 0 1 0 -5 0z" fill="black"></path><path d="M607.5 490 a2.5 2.5 0 1 0 5 0 a2.5 2.5 0 1 0 -5 0zM767.5 410 a2.5 2.5 0 1 0 5 0 a2.5 2.5 0 1 0 -5 0z" fill="black"></path><path d="M147.5 70 a2.5 2.5 0 1 0 5 0 a2.5 2.5 0 1 0 -5 0zM147.5 30 a2.5 2.5 0 1 0 5 0 a2.5 2.5 0 1 0 -5 0z" fill="black"></path><path d="M407.5 450 a2.5 2.5 0 1 0 5 0 a2.5 2.5 0 1 0 -5 0zM347.5 270 a2.5 2.5 0 1 0 5 0 a2.5 2.5 0 1 0 -5 0z" fill="black"></path><path d="M707.5 230 a2.5 2.5 0 1 0 5 0 a2.5 2.5 0 1 0 -5 0zM767.5 10 a2.5 2.5 0 1 0 5 0 a2.5 2.5 0 1 0 -5 0z" fill="black"></path><path d="M187.5 70 a2.5 2.5 0 1 0 5 0 a2.5 2.5 0 1 0 -5 0zM327.5 150 a2.5 2.5 0 1 0 5 0 a2.5 2.5 0 1 0 -5 0z" fill="black"></path><path d="M387.5 330 a2.5 2.5 0 1 0 5 0 a2.5 2.5 0 1 0 -5 0zM307.5 290 a2.5 2.5 0 1 0 5 0 a2.5 2.5 0 1 0 -5 0z" fill="black"></path><path d="M167.5 390 a2.5 2.5 0 1 0 5 0 a2.5 2.5 0 1 0 -5 0zM227.5 390 a2.5 2.5 0 1 0 5 0 a2.5 2.5 0 1 0 -5 0z" fill="black"></path><path d="M47.5 590 a2.5 2.5 0 1 0 5 0 a2.5 2.5 0 1 0 -5 0zM47.5 410 a2.5 2.5 0 1 0 5 0 a2.5 2.5 0 1 0 -5 0z" fill="black"></path><path d="M347.5 470 a2.5 2.5 0 1 0 5 0 a2.5 2.5 0 1 0 -5 0zM267.5 390 a2.5 2.5 0 1 0 5 0 a2.5 2.5 0 1 0 -5 0z" fill="black"></path><path d="M727.5 570 a2.5 2.5 0 1 0 5 0 a2.5 2.5 0 1 0 -5 0zM747.5 530 a2.5 2.5 0 1 0 5 0 a2.5 2.5 0 1 0 -5 0z" fill="black"></path><path d="M507.5 430 a2.5 2.5 0 1 0 5 0 a2.5 2.5 0 1 0 -5 0zM427.5 470 a2.5 2.5 0 1 0 5 0 a2.5 2.5 0 1 0 -5 0z" fill="black"></path><path d="M27.5 290 a2.5 2.5 0 1 0 5 0 a2.5 2.5 0 1 0 -5 0zM7.5 250 a2.5 2.5 0 1 0 5 0 a2.5 2.5 0 1 0 -5 0z" fill="black"></path><path d="M887.5 210 a2.5 2.5 0 1 0 5 0 a2.5 2.5 0 1 0 -5 0zM887.5 150 a2.5 2.5 0 1 0 5 0 a2.5 2.5 0 1 0 -5 0z" fill="black"></path><path d="M147.5 450 a2.5 2.5 0 1 0 5 0 a2.5 2.5 0 1 0 -5 0zM67.5 410 a2.5 2.5 0 1 0 5 0 a2.5 2.5 0 1 0 -5 0z" fill="black"></path><path d="M627.5 510 a2.5 2.5 0 1 0 5 0 a2.5 2.5 0 1 0 -5 0zM647.5 390 a2.5 2.5 0 1 0 5 0 a2.5 2.5 0 1 0 -5 0z" fill="black"></path><path d="M587.5 210 a2.5 2.5 0 1 0 5 0 a2.5 2.5 0 1 0 -5 0zM487.5 290 a2.5 2.5 0 1 0 5 0 a2.5 2.5 0 1 0 -5 0z" fill="black"></path><path d="M67.5 90 a2.5 2.5 0 1 0 5 0 a2.5 2.5 0 1 0 -5 0zM47.5 30 a2.5 2.5 0 1 0 5 0 a2.5 2.5 0 1 0 -5 0z" fill="black"></path><path d="M27.5 510 a2.5 2.5 0 1 0 5 0 a2.5 2.5 0 1 0 -5 0zM27.5 450 a2.5 2.5 0 1 0 5 0 a2.5 2.5 0 1 0 -5 0z" fill="black"></path><path d="M327.5 590 a2.5 2.5 0 1 0 5 0 a2.5 2.5 0 1 0 -5 0zM287.5 590 a2.5 2.5 0 1 0 5 0 a2.5 2.5 0 1 0 -5 0z" fill="black"></path><path d="M807.5 70 a2.5 2.5 0 1 0 5 0 a2.5 2.5 0 1 0 -5 0zM807.5 10 a2.5 2.5 0 1 0 5 0 a2.5 2.5 0 1 0 -5 0z" fill="black"></path><path d="M567.5 30 a2.5 2.5 0 1 0 5 0 a2.5 2.5 0 1 0 -5 0zM647.5 110 a2.5 2.5 0 1 0 5 0 a2.5 2.5 0 1 0 -5 0z" fill="black"></path><path d="M827.5 110 a2.5 2.5 0 1 0 5 0 a2.5 2.5 0 1 0 -5 0zM827.5 10 a2.5 2.5 0 1 0 5 0 a2.5 2.5 0 1 0 -5 0z" fill="black"></path><path d="M627.5 130 a2.5 2.5 0 1 0 5 0 a2.5 2.5 0 1 0 -5 0zM547.5 290 a2.5 2.5 0 1 0 5 0 a2.5 2.5 0 1 0 -5 0z" fill="black"></path><path d="M867.5 110 a2.5 2.5 0 1 0 5 0 a2.5 2.5 0 1 0 -5 0zM847.5 10 a2.5 2.5 0 1 0 5 0 a2.5 2.5 0 1 0 -5 0z" fill="black"></path><path d="M187.5 130 a2.5 2.5 0 1 0 5 0 a2.5 2.5 0 1 0 -5 0zM247.5 150 a2.5 2.5 0 1 0 5 0 a2.5 2.5 0 1 0 -5 0z" fill="black"></path><path d="M527.5 430 a2.5 2.5 0 1 0 5 0 a2.5 2.5 0 1 0 -5 0zM627.5 330 a2.5 2.5 0 1 0 5 0 a2.5 2.5 0 1 0 -5 0z" fill="black"></path><path d="M847.5 210 a2.5 2.5 0 1 0 5 0 a2.5 2.5 0 1 0 -5 0zM887.5 290 a2.5 2.5 0 1 0 5 0 a2.5 2.5 0 1 0 -5 0z" fill="black"></path><path d="M427.5 90 a2.5 2.5 0 1 0 5 0 a2.5 2.5 0 1 0 -5 0zM487.5 130 a2.5 2.5 0 1 0 5 0 a2.5 2.5 0 1 0 -5 0z" fill="black"></path><path d="M807.5 150 a2.5 2.5 0 1 0 5 0 a2.5 2.5 0 1 0 -5 0zM807.5 190 a2.5 2.5 0 1 0 5 0 a2.5 2.5 0 1 0 -5 0z" fill="black"></path><path d="M227.5 70 a2.5 2.5 0 1 0 5 0 a2.5 2.5 0 1 0 -5 0zM227.5 30 a2.5 2.5 0 1 0 5 0 a2.5 2.5 0 1 0 -5 0z" fill="black"></path><path d="M147.5 430 a2.5 2.5 0 1 0 5 0 a2.5 2.5 0 1 0 -5 0zM187.5 430 a2.5 2.5 0 1 0 5 0 a2.5 2.5 0 1 0 -5 0z" fill="black"></path><path d="M787.5 550 a2.5 2.5 0 1 0 5 0 a2.5 2.5 0 1 0 -5 0zM867.5 590 a2.5 2.5 0 1 0 5 0 a2.5 2.5 0 1 0 -5 0z" fill="black"></path><path d="M47.5 330 a2.5 2.5 0 1 0 5 0 a2.5 2.5 0 1 0 -5 0zM107.5 370 a2.5 2.5 0 1 0 5 0 a2.5 2.5 0 1 0 -5 0z" fill="black"></path><path d="M387.5 110 a2.5 2.5 0 1 0 5 0 a2.5 2.5 0 1 0 -5 0zM307.5 70 a2.5 2.5 0 1 0 5 0 a2.5 2.5 0 1 0 -5 0z" fill="black"></path><path d="M7.5 310 a2.5 2.5 0 1 0 5 0 a2.5 2.5 0 1 0 -5 0zM7.5 270 a2.5 2.5 0 1 0 5 0 a2.5 2.5 0 1 0 -5 0z" fill="black"></path><path d="M687.5 510 a2.5 2.5 0 1 0 5 0 a2.5 2.5 0 1 0 -5 0zM627.5 550 a2.5 2.5 0 1 0 5 0 a2.5 2.5 0 1 0 -5 0z" fill="black"></path><path d="M747.5 210 a2.5 2.5 0 1 0 5 0 a2.5 2.5 0 1 0 -5 0zM727.5 270 a2.5 2.5 0 1 0 5 0 a2.5 2.5 0 1 0 -5 0z" fill="black"></path><path d="M127.5 150 a2.5 2.5 0 1 0 5 0 a2.5 2.5 0 1 0 -5 0zM27.5 90 a2.5 2.5 0 1 0 5 0 a2.5 2.5 0 1 0 -5 0z" fill="black"></path><path d="M367.5 410 a2.5 2.5 0 1 0 5 0 a2.5 2.5 0 1 0 -5 0zM347.5 350 a2.5 2.5 0 1 0 5 0 a2.5 2.5 0 1 0 -5 0z" fill="black"></path><path d="M447.5 410 a2.5 2.5 0 1 0 5 0 a2.5 2.5 0 1 0 -5 0zM427.5 370 a2.5 2.5 0 1 0 5 0 a2.5 2.5 0 1 0 -5 0z" fill="black"></path><path d="M287.5 110 a2.5 2.5 0 1 0 5 0 a2.5 2.5 0 1 0 -5 0zM247.5 90 a2.5 2.5 0 1 0 5 0 a2.5 2.5 0 1 0 -5 0z" fill="black"></path><path d="M467.5 110 a2.5 2.5 0 1 0 5 0 a2.5 2.5 0 1 0 -5 0zM387.5 70 a2.5 2.5 0 1 0 5 0 a2.5 2.5 0 1 0 -5 0z" fill="black"></path><path d="M27.5 550 a2.5 2.5 0 1 0 5 0 a2.5 2.5 0 1 0 -5 0zM7.5 510 a2.5 2.5 0 1 0 5 0 a2.5 2.5 0 1 0 -5 0z" fill="black"></path><path d="M107.5 490 a2.5 2.5 0 1 0 5 0 a2.5 2.5 0 1 0 -5 0zM67.5 490 a2.5 2.5 0 1 0 5 0 a2.5 2.5 0 1 0 -5 0z" fill="black"></path><path d="M387.5 210 a2.5 2.5 0 1 0 5 0 a2.5 2.5 0 1 0 -5 0zM307.5 210 a2.5 2.5 0 1 0 5 0 a2.5 2.5 0 1 0 -5 0z" fill="black"></path><path d="M387.5 130 a2.5 2.5 0 1 0 5 0 a2.5 2.5 0 1 0 -5 0zM327.5 110 a2.5 2.5 0 1 0 5 0 a2.5 2.5 0 1 0 -5 0z" fill="black"></path><path d="M327.5 490 a2.5 2.5 0 1 0 5 0 a2.5 2.5 0 1 0 -5 0zM267.5 410 a2.5 2.5 0 1 0 5 0 a2.5 2.5 0 1 0 -5 0z" fill="black"></path><path d="M67.5 530 a2.5 2.5 0 1 0 5 0 a2.5 2.5 0 1 0 -5 0zM147.5 490 a2.5 2.5 0 1 0 5 0 a2.5 2.5 0 1 0 -5 0z" fill="black"></path><path d="M847.5 230 a2.5 2.5 0 1 0 5 0 a2.5 2.5 0 1 0 -5 0zM867.5 270 a2.5 2.5 0 1 0 5 0 a2.5 2.5 0 1 0 -5 0z" fill="black"></path><path d="M667.5 250 a2.5 2.5 0 1 0 5 0 a2.5 2.5 0 1 0 -5 0zM607.5 290 a2.5 2.5 0 1 0 5 0 a2.5 2.5 0 1 0 -5 0z" fill="black"></path><path d="M887.5 530 a2.5 2.5 0 1 0 5 0 a2.5 2.5 0 1 0 -5 0zM887.5 470 a2.5 2.5 0 1 0 5 0 a2.5 2.5 0 1 0 -5 0z" fill="black"></path><path d="M607.5 510 a2.5 2.5 0 1 0 5 0 a2.5 2.5 0 1 0 -5 0zM547.5 470 a2.5 2.5 0 1 0 5 0 a2.5 2.5 0 1 0 -5 0z" fill="black"></path><path d="M27.5 590 a2.5 2.5 0 1 0 5 0 a2.5 2.5 0 1 0 -5 0zM7.5 550 a2.5 2.5 0 1 0 5 0 a2.5 2.5 0 1 0 -5 0z" fill="black"></path><path d="M567.5 70 a2.5 2.5 0 1 0 5 0 a2.5 2.5 0 1 0 -5 0zM587.5 110 a2.5 2.5 0 1 0 5 0 a2.5 2.5 0 1 0 -5 0z" fill="black"></path><path d="M307.5 450 a2.5 2.5 0 1 0 5 0 a2.5 2.5 0 1 0 -5 0zM267.5 430 a2.5 2.5 0 1 0 5 0 a2.5 2.5 0 1 0 -5 0z" fill="black"></path><path d="M47.5 230 a2.5 2.5 0 1 0 5 0 a2.5 2.5 0 1 0 -5 0zM7.5 190 a2.5 2.5 0 1 0 5 0 a2.5 2.5 0 1 0 -5 0z" fill="black"></path><path d="M227.5 130 a2.5 2.5 0 1 0 5 0 a2.5 2.5 0 1 0 -5 0zM187.5 90 a2.5 2.5 0 1 0 5 0 a2.5 2.5 0 1 0 -5 0z" fill="black"></path><path d="M747.5 50 a2.5 2.5 0 1 0 5 0 a2.5 2.5 0 1 0 -5 0zM767.5 150 a2.5 2.5 0 1 0 5 0 a2.5 2.5 0 1 0 -5 0z" fill="black"></path><path d="M7.5 370 a2.5 2.5 0 1 0 5 0 a2.5 2.5 0 1 0 -5 0zM47.5 350 a2.5 2.5 0 1 0 5 0 a2.5 2.5 0 1 0 -5 0z" fill="black"></path><path d="M47.5 210 a2.5 2.5 0 1 0 5 0 a2.5 2.5 0 1 0 -5 0zM47.5 170 a2.5 2.5 0 1 0 5 0 a2.5 2.5 0 1 0 -5 0z" fill="black"></path><path d="M267.5 130 a2.5 2.5 0 1 0 5 0 a2.5 2.5 0 1 0 -5 0zM307.5 130 a2.5 2.5 0 1 0 5 0 a2.5 2.5 0 1 0 -5 0z" fill="black"></path><path d="M527.5 390 a2.5 2.5 0 1 0 5 0 a2.5 2.5 0 1 0 -5 0zM487.5 410 a2.5 2.5 0 1 0 5 0 a2.5 2.5 0 1 0 -5 0z" fill="black"></path><path d="M427.5 250 a2.5 2.5 0 1 0 5 0 a2.5 2.5 0 1 0 -5 0zM447.5 310 a2.5 2.5 0 1 0 5 0 a2.5 2.5 0 1 0 -5 0z" fill="black"></path><path d="M667.5 470 a2.5 2.5 0 1 0 5 0 a2.5 2.5 0 1 0 -5 0zM747.5 390 a2.5 2.5 0 1 0 5 0 a2.5 2.5 0 1 0 -5 0z" fill="black"></path><path d="M327.5 550 a2.5 2.5 0 1 0 5 0 a2.5 2.5 0 1 0 -5 0zM307.5 510 a2.5 2.5 0 1 0 5 0 a2.5 2.5 0 1 0 -5 0z" fill="black"></path><path d="M87.5 110 a2.5 2.5 0 1 0 5 0 a2.5 2.5 0 1 0 -5 0zM47.5 110 a2.5 2.5 0 1 0 5 0 a2.5 2.5 0 1 0 -5 0z" fill="black"></path><path d="M427.5 410 a2.5 2.5 0 1 0 5 0 a2.5 2.5 0 1 0 -5 0zM427.5 450 a2.5 2.5 0 1 0 5 0 a2.5 2.5 0 1 0 -5 0z" fill="black"></path><path d="M127.5 210 a2.5 2.5 0 1 0 5 0 a2.5 2.5 0 1 0 -5 0zM187.5 210 a2.5 2.5 0 1 0 5 0 a2.5 2.5 0 1 0 -5 0z" fill="black"></path><path d="M547.5 350 a2.5 2.5 0 1 0 5 0 a2.5 2.5 0 1 0 -5 0zM607.5 330 a2.5 2.5 0 1 0 5 0 a2.5 2.5 0 1 0 -5 0z" fill="black"></path><path d="M867.5 550 a2.5 2.5 0 1 0 5 0 a2.5 2.5 0 1 0 -5 0zM807.5 550 a2.5 2.5 0 1 0 5 0 a2.5 2.5 0 1 0 -5 0z" fill="black"></path><path d="M427.5 550 a2.5 2.5 0 1 0 5 0 a2.5 2.5 0 1 0 -5 0zM447.5 590 a2.5 2.5 0 1 0 5 0 a2.5 2.5 0 1 0 -5 0z" fill="black"></path><path d="M867.5 30 a2.5 2.5 0 1 0 5 0 a2.5 2.5 0 1 0 -5 0zM867.5 90 a2.5 2.5 0 1 0 5 0 a2.5 2.5 0 1 0 -5 0z" fill="black"></path><path d="M87.5 290 a2.5 2.5 0 1 0 5 0 a2.5 2.5 0 1 0 -5 0zM67.5 250 a2.5 2.5 0 1 0 5 0 a2.5 2.5 0 1 0 -5 0z" fill="black"></path><path d="M567.5 190 a2.5 2.5 0 1 0 5 0 a2.5 2.5 0 1 0 -5 0zM527.5 130 a2.5 2.5 0 1 0 5 0 a2.5 2.5 0 1 0 -5 0z" fill="black"></path><path d="M827.5 330 a2.5 2.5 0 1 0 5 0 a2.5 2.5 0 1 0 -5 0zM827.5 270 a2.5 2.5 0 1 0 5 0 a2.5 2.5 0 1 0 -5 0z" fill="black"></path><path d="M347.5 310 a2.5 2.5 0 1 0 5 0 a2.5 2.5 0 1 0 -5 0zM387.5 310 a2.5 2.5 0 1 0 5 0 a2.5 2.5 0 1 0 -5 0z" fill="black"></path><path d="M87.5 150 a2.5 2.5 0 1 0 5 0 a2.5 2.5 0 1 0 -5 0zM107.5 110 a2.5 2.5 0 1 0 5 0 a2.5 2.5 0 1 0 -5 0z" fill="black"></path></mask></defs></svg>